<mxfile host="app.diagrams.net" modified="2022-04-25T02:43:26.860Z" agent="5.0 (Macintosh; Intel Mac OS X 10_15_7) AppleWebKit/537.36 (KHTML, like Gecko) Chrome/100.0.4896.127 Safari/537.36" etag="rZcEwxMiWCVviL3zBAnM" version="17.4.5" type="github">
  <diagram id="he9bxZUku_yFXdmUKrTk" name="第 1 页">
    <mxGraphModel dx="1188" dy="641" grid="1" gridSize="10" guides="1" tooltips="1" connect="1" arrows="1" fold="1" page="1" pageScale="1" pageWidth="3300" pageHeight="2339" math="0" shadow="0">
      <root>
        <mxCell id="0" />
        <mxCell id="1" parent="0" />
        <mxCell id="0aP-q9_bjXwNO8tc250L-19" value="NoxPay" style="shape=umlLifeline;perimeter=lifelinePerimeter;whiteSpace=wrap;html=1;container=1;collapsible=0;recursiveResize=0;outlineConnect=0;" vertex="1" parent="1">
          <mxGeometry x="240" y="350" width="100" height="510" as="geometry" />
        </mxCell>
        <mxCell id="0aP-q9_bjXwNO8tc250L-20" value="" style="html=1;points=[];perimeter=orthogonalPerimeter;fontSize=12;" vertex="1" parent="0aP-q9_bjXwNO8tc250L-19">
          <mxGeometry x="50" y="149.73" width="10" height="40" as="geometry" />
        </mxCell>
        <mxCell id="0aP-q9_bjXwNO8tc250L-21" value="+downloadMaterial:" style="edgeStyle=orthogonalEdgeStyle;html=1;align=left;spacingLeft=2;endArrow=block;rounded=0;exitX=0.505;exitY=0.177;exitDx=0;exitDy=0;exitPerimeter=0;fontSize=12;" edge="1" parent="0aP-q9_bjXwNO8tc250L-19">
          <mxGeometry relative="1" as="geometry">
            <mxPoint x="50" y="130" as="sourcePoint" />
            <Array as="points">
              <mxPoint x="84.5" y="130" />
              <mxPoint x="84.5" y="170" />
              <mxPoint x="59.5" y="170" />
            </Array>
            <mxPoint x="60" y="170" as="targetPoint" />
          </mxGeometry>
        </mxCell>
        <mxCell id="0aP-q9_bjXwNO8tc250L-23" value="" style="html=1;points=[];perimeter=orthogonalPerimeter;fontSize=12;" vertex="1" parent="0aP-q9_bjXwNO8tc250L-19">
          <mxGeometry x="40" y="60" width="10" height="40" as="geometry" />
        </mxCell>
        <mxCell id="0aP-q9_bjXwNO8tc250L-22" value=":Object" style="shape=umlLifeline;perimeter=lifelinePerimeter;whiteSpace=wrap;html=1;container=1;collapsible=0;recursiveResize=0;outlineConnect=0;" vertex="1" parent="1">
          <mxGeometry x="100" y="350" width="100" height="510" as="geometry" />
        </mxCell>
        <mxCell id="0aP-q9_bjXwNO8tc250L-24" value="&lt;span style=&quot;text-align: left; font-size: 10px;&quot;&gt;&lt;font style=&quot;font-size: 10px;&quot;&gt;+ startWithSDKInfo:&lt;/font&gt;&lt;/span&gt;" style="html=1;verticalAlign=bottom;startArrow=oval;endArrow=block;startSize=8;rounded=0;fontSize=10;" edge="1" target="0aP-q9_bjXwNO8tc250L-23" parent="1" source="0aP-q9_bjXwNO8tc250L-22">
          <mxGeometry relative="1" as="geometry">
            <mxPoint x="220" y="410" as="sourcePoint" />
            <Array as="points">
              <mxPoint x="210" y="430" />
            </Array>
          </mxGeometry>
        </mxCell>
      </root>
    </mxGraphModel>
  </diagram>
</mxfile>
